HIERARCHY
ROOT pelvis
{
  OFFSET 0 100 0
  CHANNELS 6 Xposition Yposition Zposition Zrotation Xrotation Yrotation
  JOINT pelvis_right_femur
  {
    OFFSET -10.78128 -3.44521 -0.5502486
    CHANNELS 3 Zrotation Xrotation Yrotation
    JOINT right_femur_tibia
    {
      OFFSET -0.8047443 -44.0398 -0.1307829
      CHANNELS 3 Zrotation Xrotation Yrotation
      JOINT right_tibia_foot
      {
        OFFSET 3.006224 -47.83518 -5
        CHANNELS 3 Zrotation Xrotation Yrotation
        End Site
        {
          OFFSET 0 -5 15
        }
      }
    }
  }
  JOINT pelvis_left_femur
  {
    OFFSET 10.78128 -3.44521 -0.5502486
    CHANNELS 3 Zrotation Xrotation Yrotation
    JOINT left_femur_tibia
    {
      OFFSET 0.8047443 -44.0398 -0.1307829
      CHANNELS 3 Zrotation Xrotation Yrotation
      JOINT left_tibia_foot
      {
        OFFSET -4.370144 -48.10324 -4.275266
        CHANNELS 3 Zrotation Xrotation Yrotation
        End Site
        {
          OFFSET 0 -5 15
        }
      }
    }
  }
  JOINT pelvis_spine1
  {
    OFFSET 0 6.468898 -3.129235
    CHANNELS 3 Zrotation Xrotation Yrotation
    JOINT spine1
    {
      OFFSET 0 23.15396 4.99043
      CHANNELS 3 Zrotation Xrotation Yrotation
      JOINT spine2
      {
        OFFSET 0 20.79997 -5.064912
        CHANNELS 3 Zrotation Xrotation Yrotation
        JOINT neck
        {
          OFFSET 0 14.38658 9.616178
          CHANNELS 3 Zrotation Xrotation Yrotation
          End Site
          {
            OFFSET 0 20 0
          }
        }
      }
      JOINT right_manubrium
      {
        OFFSET -5.722621 16.35077 3.967754
        CHANNELS 3 Zrotation Xrotation Yrotation
        JOINT right_clavicle
        {
          OFFSET -13.16364 1.694482 -4.693211
          CHANNELS 3 Zrotation Xrotation Yrotation
          JOINT right_humerus
          {
            OFFSET -28.5034 -0.3100689 -2.792744
            CHANNELS 3 Zrotation Xrotation Yrotation
            JOINT right_radius
            {
              OFFSET -25.15693 0.02248979 -1.271978
              CHANNELS 3 Zrotation Xrotation Yrotation
              End Site
              {
                OFFSET -15 0 0
              }
            }
          }
        }
      }
      JOINT left_manubrium
      {
        OFFSET 5.722621 16.35077 3.967754
        CHANNELS 3 Zrotation Xrotation Yrotation
        JOINT left_clavicle
        {
          OFFSET 13.16364 1.694482 -4.693211
          CHANNELS 3 Zrotation Xrotation Yrotation
          JOINT left_humerus
          {
            OFFSET 29.39168 -1.063119 -2.237045
            CHANNELS 3 Zrotation Xrotation Yrotation
            JOINT left_radius
            {
              OFFSET 24.59957 -0.9528479 0.9047498
              CHANNELS 3 Zrotation Xrotation Yrotation
              End Site
              {
                OFFSET 15 -0 -0
              }
            }
          }
        }
      }
    }
  }
}
MOTION
Frames: 19
Frame Time: 0.0416666666667
2063.229 75.28576 1284.039 6.775705 14.01108 155.4147 3.534035 1.647674 -12.87055 -0 21.56908 -0 -18.96023 22.29802 4.266094 -1.644135 2.580802 0.2538033 -0 12.84401 -0 7.114666 -9.877199 15.01938 1.704296 -4.11005 2.980189 -2.314339 18.90063 -5.150257 2.178859 24.08926 3.300836 0.17591 -19.62815 6.547239 -13.81632 -27.67606 10.37562 106.174 -0.7423084 -14.43145 -0 0 8.447458 -36.91501 9.602889 17.95422 4.85904 -30.10816 -12.49389 -86.48464 2.869827 19.59525 0 0 -17.29047 23.03816 17.43297 -14.24955
2066.056 75.34232 1276.224 6.661865 14.06472 155.8841 3.534035 1.647674 -12.87055 -0 21.56908 -0 -18.96023 22.29802 4.266094 -1.644135 2.580802 0.2538033 -0 12.84401 -0 7.114666 -9.877199 15.01938 1.704296 -4.11005 2.980189 -2.314339 18.90063 -5.150257 2.178859 24.08926 3.300836 0.17591 -19.62815 6.547239 -13.81632 -27.67606 10.37562 106.174 -0.7423084 -14.43145 -0 0 8.447458 -36.91501 9.602889 17.95422 4.85904 -30.10816 -12.49389 -86.48464 2.869827 19.59525 0 0 -17.29047 23.03816 17.43297 -14.24955
2068.82 75.39888 1268.385 6.547549 14.11745 156.3536 3.534035 1.647674 -12.87055 -0 21.56908 -0 -18.96023 22.29802 4.266094 -1.644135 2.580802 0.2538033 -0 12.84401 -0 7.114666 -9.877199 15.01938 1.704296 -4.11005 2.980189 -2.314339 18.90063 -5.150257 2.178859 24.08926 3.300836 0.17591 -19.62815 6.547239 -13.81632 -27.67606 10.37562 106.174 -0.7423084 -14.43145 -0 0 8.447458 -36.91501 9.602889 17.95422 4.85904 -30.10816 -12.49389 -86.48464 2.869827 19.59525 0 0 -17.29047 23.03816 17.43297 -14.24955
2071.522 75.45545 1260.525 6.432766 14.16927 156.8233 3.534035 1.647674 -12.87055 -0 21.56908 -0 -18.96023 22.29802 4.266094 -1.644135 2.580802 0.2538033 -0 12.84401 -0 7.114666 -9.877199 15.01938 1.704296 -4.11005 2.980189 -2.314339 18.90063 -5.150257 2.178859 24.08926 3.300836 0.17591 -19.62815 6.547239 -13.81632 -27.67606 10.37562 106.174 -0.7423084 -14.43145 -0 0 8.447458 -36.91501 9.602889 17.95422 4.85904 -30.10816 -12.49389 -86.48464 2.869827 19.59525 0 0 -17.29047 23.03816 17.43297 -14.24955
2074.161 75.51201 1252.644 6.317521 14.22018 157.2933 3.534035 1.647674 -12.87055 -0 21.56908 -0 -18.96023 22.29802 4.266094 -1.644135 2.580802 0.2538033 -0 12.84401 -0 7.114666 -9.877199 15.01938 1.704296 -4.11005 2.980189 -2.314339 18.90063 -5.150257 2.178859 24.08926 3.300836 0.17591 -19.62815 6.547239 -13.81632 -27.67606 10.37562 106.174 -0.7423084 -14.43145 -0 0 8.447457 -36.91501 9.602889 17.95422 4.85904 -30.10816 -12.49389 -86.48464 2.869827 19.59525 0 0 -17.29047 23.03816 17.43297 -14.24955
2076.736 75.56858 1244.742 6.201824 14.27017 157.7635 3.534035 1.647674 -12.87055 -0 21.56908 -0 -18.96023 22.29802 4.266094 -1.644135 2.580802 0.2538033 -0 12.84401 -0 7.114666 -9.877199 15.01938 1.704296 -4.11005 2.980189 -2.314339 18.90063 -5.150257 2.178859 24.08926 3.300836 0.17591 -19.62815 6.547239 -13.81632 -27.67606 10.37562 106.174 -0.7423084 -14.43145 -0 0 8.447457 -36.91501 9.602889 17.95422 4.85904 -30.10816 -12.49389 -86.48464 2.869827 19.59525 0 0 -17.29047 23.03816 17.43297 -14.24955
2079.249 75.62514 1236.819 6.085682 14.31923 158.2339 3.534035 1.647674 -12.87055 -0 21.56908 -0 -18.96023 22.29802 4.266094 -1.644135 2.580802 0.2538033 -0 12.84401 -0 7.114666 -9.877199 15.01938 1.704296 -4.11005 2.980189 -2.314339 18.90063 -5.150257 2.178859 24.08926 3.300836 0.17591 -19.62815 6.547239 -13.81632 -27.67606 10.37562 106.174 -0.7423084 -14.43145 -0 0 8.447457 -36.91501 9.602889 17.95422 4.85904 -30.10816 -12.49389 -86.48464 2.869827 19.59525 0 0 -17.29047 23.03816 17.43297 -14.24955
2081.697 75.68171 1228.877 5.969103 14.36737 158.7044 3.534035 1.647674 -12.87055 -0 21.56908 -0 -18.96023 22.29802 4.266094 -1.644135 2.580802 0.2538033 -0 12.84401 -0 7.114666 -9.877199 15.01938 1.704296 -4.11005 2.980189 -2.314339 18.90063 -5.150257 2.178859 24.08926 3.300836 0.17591 -19.62815 6.547239 -13.81632 -27.67606 10.37562 106.174 -0.7423084 -14.43145 -0 0 8.447457 -36.91501 9.602889 17.95422 4.85904 -30.10816 -12.49389 -86.48464 2.869827 19.59525 0 0 -17.29047 23.03816 17.43297 -14.24955
2084.083 75.73827 1220.915 5.852095 14.41458 159.1752 3.534035 1.647674 -12.87055 -0 21.56908 -0 -18.96023 22.29802 4.266094 -1.644135 2.580802 0.2538033 -0 12.84401 -0 7.114666 -9.877199 15.01938 1.704296 -4.11005 2.980189 -2.314339 18.90063 -5.150257 2.178859 24.08926 3.300836 0.17591 -19.62815 6.547239 -13.81632 -27.67606 10.37562 106.174 -0.7423084 -14.43145 -0 0 8.447457 -36.91501 9.602889 17.95422 4.85904 -30.10816 -12.49389 -86.48464 2.869827 19.59525 0 0 -17.29047 23.03816 17.43297 -14.24955
2086.404 75.79483 1212.935 5.734665 14.46086 159.6462 3.534035 1.647674 -12.87055 -0 21.56908 -0 -18.96023 22.29802 4.266094 -1.644135 2.580802 0.2538033 -0 12.84401 -0 7.114666 -9.877199 15.01938 1.704296 -4.11005 2.980189 -2.314339 18.90063 -5.150257 2.178859 24.08926 3.300836 0.17591 -19.62815 6.547239 -13.81632 -27.67606 10.37562 106.174 -0.7423084 -14.43145 -0 0 8.447457 -36.91501 9.602889 17.95422 4.85904 -30.10816 -12.49389 -86.48464 2.869827 19.59525 0 0 -17.29047 23.03816 17.43297 -14.24955
2088.661 75.8514 1204.936 5.616823 14.5062 160.1174 3.534035 1.647674 -12.87055 -0 21.56908 -0 -18.96023 22.29802 4.266094 -1.644135 2.580802 0.2538033 -0 12.84401 -0 7.114666 -9.877199 15.01938 1.704296 -4.11005 2.980189 -2.314339 18.90063 -5.150257 2.178859 24.08926 3.300836 0.17591 -19.62815 6.547239 -13.81632 -27.67606 10.37562 106.174 -0.7423084 -14.43145 -0 0 8.447457 -36.91501 9.602889 17.95422 4.85904 -30.10816 -12.49389 -86.48464 2.869827 19.59525 0 0 -17.29047 23.03816 17.43297 -14.24955
2090.855 75.90796 1196.919 5.498575 14.5506 160.5888 3.534035 1.647674 -12.87055 -0 21.56908 -0 -18.96023 22.29802 4.266094 -1.644135 2.580802 0.2538033 -0 12.84401 -0 7.114666 -9.877199 15.01938 1.704296 -4.11005 2.980189 -2.314339 18.90063 -5.150257 2.178859 24.08926 3.300836 0.17591 -19.62815 6.547239 -13.81632 -27.67606 10.37562 106.174 -0.7423084 -14.43145 -0 0 8.447457 -36.91501 9.602889 17.95422 4.85904 -30.10816 -12.49389 -86.48464 2.869827 19.59525 0 0 -17.29047 23.03816 17.43297 -14.24955
2092.984 75.96453 1188.885 5.37993 14.59405 161.0603 3.534035 1.647674 -12.87055 -0 21.56908 -0 -18.96023 22.29802 4.266094 -1.644135 2.580802 0.2538033 -0 12.84401 -0 7.114666 -9.877199 15.01938 1.704296 -4.11005 2.980189 -2.314339 18.90063 -5.150257 2.178859 24.08926 3.300836 0.17591 -19.62815 6.547239 -13.81632 -27.67606 10.37562 106.174 -0.7423084 -14.43145 -0 0 8.447457 -36.91501 9.602889 17.95422 4.85904 -30.10816 -12.49389 -86.48464 2.869827 19.59525 0 0 -17.29047 23.03816 17.43297 -14.24955
2095.049 76.02109 1180.834 5.260896 14.63656 161.5321 3.534035 1.647674 -12.87055 -0 21.56908 -0 -18.96023 22.29802 4.266094 -1.644135 2.580802 0.2538033 -0 12.84401 -0 7.114666 -9.877199 15.01938 1.704296 -4.11005 2.980189 -2.314339 18.90063 -5.150257 2.178859 24.08926 3.300836 0.17591 -19.62815 6.547239 -13.81632 -27.67606 10.37562 106.174 -0.7423084 -14.43145 -0 0 8.447457 -36.91501 9.602889 17.95422 4.85904 -30.10816 -12.49389 -86.48464 2.869827 19.59525 0 0 -17.29047 23.03816 17.43297 -14.24955
2097.049 76.07766 1172.767 5.141482 14.67812 162.004 3.534035 1.647674 -12.87055 -0 21.56908 -0 -18.96023 22.29802 4.266094 -1.644135 2.580802 0.2538033 -0 12.84401 -0 7.114666 -9.877199 15.01938 1.704296 -4.11005 2.980189 -2.314339 18.90063 -5.150257 2.178859 24.08926 3.300836 0.17591 -19.62815 6.547239 -13.81632 -27.67606 10.37562 106.174 -0.7423084 -14.43145 -0 0 8.447457 -36.91501 9.602889 17.95422 4.85904 -30.10816 -12.49389 -86.48464 2.869827 19.59525 0 0 -17.29047 23.03816 17.43297 -14.24955
2098.985 76.13422 1164.684 5.021695 14.71873 162.4761 3.534035 1.647674 -12.87055 -0 21.56908 -0 -18.96023 22.29802 4.266094 -1.644135 2.580802 0.2538033 -0 12.84401 -0 7.114666 -9.877199 15.01938 1.704296 -4.11005 2.980189 -2.314339 18.90063 -5.150257 2.178859 24.08926 3.300836 0.17591 -19.62815 6.547239 -13.81632 -27.67606 10.37562 106.174 -0.7423084 -14.43145 -0 0 8.447457 -36.91501 9.602889 17.95422 4.85904 -30.10816 -12.49389 -86.48464 2.869827 19.59525 0 0 -17.29047 23.03816 17.43297 -14.24955
2100.856 76.19078 1156.586 4.901545 14.75838 162.9483 3.534035 1.647674 -12.87055 -0 21.56908 -0 -18.96023 22.29802 4.266094 -1.644135 2.580802 0.2538033 -0 12.84401 -0 7.114666 -9.877199 15.01938 1.704296 -4.11005 2.980189 -2.314339 18.90063 -5.150257 2.178859 24.08926 3.300836 0.17591 -19.62815 6.547239 -13.81632 -27.67606 10.37562 106.174 -0.7423084 -14.43145 -0 0 8.447458 -36.91501 9.602889 17.95422 4.85904 -30.10816 -12.49389 -86.48464 2.869827 19.59525 0 0 -17.29047 23.03816 17.43297 -14.24955
2102.662 76.24735 1148.474 4.781038 14.79707 163.4208 3.534035 1.647674 -12.87055 -0 21.56908 -0 -18.96023 22.29802 4.266094 -1.644135 2.580802 0.2538033 -0 12.84401 -0 7.114666 -9.877199 15.01938 1.704296 -4.11005 2.980189 -2.314339 18.90063 -5.150257 2.178859 24.08926 3.300836 0.17591 -19.62815 6.547239 -13.81632 -27.67606 10.37562 106.174 -0.7423084 -14.43145 -0 0 8.447458 -36.91501 9.602889 17.95422 4.85904 -30.10816 -12.49389 -86.48464 2.869827 19.59525 0 0 -17.29047 23.03816 17.43297 -14.24955
2104.403 76.30391 1140.347 4.660185 14.8348 163.8934 3.534035 1.647674 -12.87055 -0 21.56908 -0 -18.96023 22.29802 4.266094 -1.644135 2.580802 0.2538033 -0 12.84401 -0 7.114666 -9.877199 15.01938 1.704296 -4.11005 2.980189 -2.314339 18.90063 -5.150257 2.178859 24.08926 3.300836 0.17591 -19.62815 6.547239 -13.81632 -27.67606 10.37562 106.174 -0.7423084 -14.43145 -0 0 8.447458 -36.91501 9.602889 17.95422 4.85904 -30.10816 -12.49389 -86.48464 2.869827 19.59525 0 0 -17.29047 23.03816 17.43297 -14.24955
